<svg xmlns="http://www.w3.org/2000/svg" viewBox="0 0 24 24" fill="#e2e6ef"><path d="M3.515 16.243c.418 1.14 1.07 2.152 1.906 2.97a9.093 9.093 0 0 0 2.906 2.024c1.11.5 2.316.763 3.574.763 1.26 0 2.47-.262 3.58-.763a9.176 9.176 0 0 0 2.912-2.023 9.347 9.347 0 0 0 1.907-2.97C20.77 15.098 21 13.84 21 12.5s-.229-2.598-.7-3.744a9.347 9.347 0 0 0-1.907-2.97 9.093 9.093 0 0 0-2.911-2.023C14.37 3.262 13.16 3 11.9 3c-1.258 0-2.464.262-3.574.763a9.093 9.093 0 0 0-2.906 2.024 9.347 9.347 0 0 0-1.906 2.97C3.044 9.9 2.815 11.16 2.815 12.5s.23 2.596.7 3.743ZM12 6.5c1.66 0 3.16.67 4.24 1.76A5.98 5.98 0 0 1 18 12.5a5.98 5.98 0 0 1-1.76 4.24A5.98 5.98 0 0 1 12 18.5a5.98 5.98 0 0 1-4.24-1.76A5.98 5.98 0 0 1 6 12.5c0-1.66.67-3.16 1.76-4.24A5.98 5.98 0 0 1 12 6.5Z"/></svg>
